# xmcd CD database file
#
# Track frame offsets:
#	150
#	16992
#	44648
#	61646
#	86574
#	106858
#	133582
#	151398
#	172688
#	206601
#	221664
#	247763
#	263503
#	275547
#
# Disc length: 3968 seconds
#
# Revision: 0
# Processed by: cddbd v1.5.1PL0 Copyright (c) Steve Scherf et al.
# Submitted via: CDex 1.51
#
DISCID=b20f7e0e
DTITLE=Main Influenz - In Blue's again
DYEAR=1997
DGENRE=Blues
TTITLE0=Get on that boogie
TTITLE1=Worried life blues
TTITLE2=Looking back
TTITLE3=Life ain't no easier
TTITLE4=C'mon
TTITLE5=Like in a dream
TTITLE6=Too tired
TTITLE7=Same old blues
TTITLE8=In time
TTITLE9=Roberta
TTITLE10=We stood together
TTITLE11=Our town
TTITLE12=Styrofoam
TTITLE13=Doodlin'
EXTD=YEAR: 1997
EXTT0=
EXTT1=
EXTT2=
EXTT3=
EXTT4=
EXTT5=
EXTT6=
EXTT7=
EXTT8=
EXTT9=
EXTT10=
EXTT11=
EXTT12=
EXTT13=
PLAYORDER=
